<svg xmlns="http://www.w3.org/2000/svg" width="942" height="546" viewBox="0 0 942 546" fill="none">
    <path d="M847.708 274.635C847.708 322.161 809.181 360.688 761.656 360.688C714.131 360.688 675.604 322.161 675.604 274.635C675.604 227.11 714.131 188.583 761.656 188.583C809.181 188.583 847.708 227.11 847.708 274.635ZM698.466 274.635C698.466 309.535 726.757 337.826 761.656 337.826C796.555 337.826 824.846 309.535 824.846 274.635C824.846 239.736 796.555 211.445 761.656 211.445C726.757 211.445 698.466 239.736 698.466 274.635Z" fill="url(#paint0_linear_153_212)"/>
    <path d="M747.924 272.805C747.924 377.967 662.672 463.219 557.51 463.219C452.347 463.219 367.096 377.967 367.096 272.805C367.096 167.642 452.347 82.3906 557.51 82.3906C662.672 82.3906 747.924 167.642 747.924 272.805ZM392.295 272.805C392.295 364.05 466.264 438.02 557.51 438.02C648.755 438.02 722.725 364.05 722.725 272.805C722.725 181.559 648.755 107.589 557.51 107.589C466.264 107.589 392.295 181.559 392.295 272.805Z" fill="url(#paint1_linear_153_212)"/>
    <path d="M545.609 272.805C545.609 423.471 423.471 545.609 272.805 545.609C122.139 545.609 0 423.471 0 272.805C0 122.139 122.139 0 272.805 0C423.471 0 545.609 122.139 545.609 272.805ZM27.2805 272.805C27.2805 408.404 137.205 518.329 272.805 518.329C408.404 518.329 518.329 408.404 518.329 272.805C518.329 137.205 408.404 27.2805 272.805 27.2805C137.205 27.2805 27.2805 137.205 27.2805 272.805Z" fill="url(#paint2_linear_153_212)"/>
    <rect x="172.105" y="263.65" width="769.895" height="18.309" fill="url(#paint3_linear_153_212)"/>
    <defs>
        <linearGradient id="paint0_linear_153_212" x1="847.708" y1="360.688" x2="675.604" y2="360.688" gradientUnits="userSpaceOnUse">
            <stop stop-color="#494949"/>
            <stop offset="1" stop-color="#060606"/>
        </linearGradient>
        <linearGradient id="paint1_linear_153_212" x1="747.924" y1="488.851" x2="367.096" y2="493.886" gradientUnits="userSpaceOnUse">
            <stop stop-color="#484848"/>
            <stop offset="1" stop-color="#060606"/>
        </linearGradient>
        <linearGradient id="paint2_linear_153_212" x1="545.609" y1="545.609" x2="2.44998e-05" y2="545.609" gradientUnits="userSpaceOnUse">
            <stop stop-color="#474747"/>
            <stop offset="1" stop-color="#121212"/>
        </linearGradient>
        <linearGradient id="paint3_linear_153_212" x1="942" y1="281.959" x2="172.105" y2="281.959" gradientUnits="userSpaceOnUse">
            <stop stop-color="#E9562A"/>
            <stop offset="1" stop-color="#272727" stop-opacity="0"/>
        </linearGradient>
    </defs>
</svg>
