<svg xmlns="http://www.w3.org/2000/svg" width="182" height="183" viewBox="0 0 182 183" fill="none">
    <path d="M50.377 45.9621L45.1976 39.0954L53.2717 33.0038L58.4511 39.8706L56.8742 41.0563L52.6689 35.4839L47.7388 39.2002L51.9441 44.7726L50.3672 45.9582L50.377 45.9621Z" fill="white"/>
    <path d="M61.8174 28.2859C63.1804 27.6398 64.4528 27.4801 65.6346 27.8066C66.8163 28.1332 67.7046 28.9281 68.3024 30.1981C68.9001 31.4682 68.9577 32.6547 68.4575 33.7733C67.9641 34.889 67.036 35.7698 65.6661 36.4188C63.9323 37.2414 62.4331 37.2716 61.1716 36.516L63.2834 40.969L61.5016 41.8123L56.4111 31.0698L58.0451 30.2985L58.8618 32.0186C58.9539 30.426 59.9358 29.1804 61.8203 28.2927L61.8174 28.2859ZM64.5191 35.2887C65.5318 34.8103 66.2118 34.183 66.5691 33.4107C66.9263 32.6384 66.914 31.8389 66.5313 31.0287C66.1486 30.2185 65.5454 29.7069 64.7118 29.49C63.888 29.277 62.9683 29.4062 61.9556 29.8846C60.936 30.366 60.2491 30.9962 59.8919 31.7685C59.5346 32.5408 59.5538 33.3374 59.9365 34.1475C60.3192 34.9577 60.9224 35.4693 61.7492 35.6892C62.5729 35.9022 63.4927 35.773 64.5122 35.2916L64.5191 35.2887Z" fill="white"/>
    <path d="M72.2809 32.4617C71.0868 31.9372 70.3244 30.9822 69.9929 29.6134C69.6613 28.2445 69.9017 27.0512 70.7206 26.0306C71.5426 25.0168 72.7888 24.3074 74.4661 23.8995C76.1434 23.4915 77.584 23.5518 78.7713 24.0792C79.9655 24.6037 80.7278 25.5587 81.0593 26.9275C81.3909 28.2964 81.1506 29.4897 80.3316 30.5103C79.5126 31.531 78.2635 32.2335 76.5793 32.6444C74.902 33.0523 73.4614 32.9921 72.2741 32.4647L72.2809 32.4617ZM72.3585 26.8104C71.8354 27.4999 71.6849 28.2804 71.8905 29.1509C72.1058 30.0253 72.5957 30.6509 73.374 31.0218C74.1522 31.3927 75.1018 31.4456 76.2299 31.1776C77.3481 30.9056 78.1638 30.423 78.6937 29.7305C79.2237 29.038 79.3741 28.2576 79.1647 27.3969C78.9553 26.5362 78.4585 25.9135 77.6773 25.5358C76.8962 25.158 75.9465 25.1051 74.8253 25.3702C73.7003 25.6451 72.8747 26.1239 72.3516 26.8134L72.3585 26.8104Z" fill="white"/>
    <path d="M94.2305 30.5598L91.5704 30.669L87.2063 27.2871L85.3369 27.3635L85.4861 30.9249L83.5197 31.0026L83.1629 22.409L85.1293 22.3314L85.2733 25.8056L87.1897 25.7252L91.0931 22.0787L93.569 21.976L88.6691 26.289L94.2237 30.5628L94.2305 30.5598Z" fill="white"/>
    <path d="M102.508 22.9251C103.999 23.1586 105.139 23.747 105.926 24.6833C106.713 25.6196 107 26.772 106.779 28.1602C106.557 29.5485 105.93 30.5597 104.891 31.2038C103.852 31.8478 102.591 32.0516 101.097 31.8113C99.2045 31.5153 97.9467 30.6932 97.3331 29.3487L96.5573 34.2123L94.6123 33.9068L96.473 22.1677L98.2554 22.4542L97.9565 24.3395C98.9295 23.0734 100.443 22.6062 102.504 22.9349L102.508 22.9251ZM100.787 30.2297C101.887 30.4046 102.807 30.2754 103.543 29.8351C104.28 29.3948 104.718 28.734 104.854 27.8458C104.99 26.9576 104.782 26.1939 104.22 25.5508C103.657 24.9078 102.821 24.4969 101.721 24.322C100.605 24.1461 99.6848 24.2753 98.9552 24.7127C98.2255 25.15 97.7905 25.8177 97.6512 26.699C97.5148 27.5872 97.7229 28.3509 98.2756 28.9901C98.8312 29.6361 99.6644 30.0401 100.781 30.216L100.787 30.2297Z" fill="white"/>
    <path d="M118.122 27.639L120.123 28.3755L112.662 35.6577C111.864 36.4656 111.146 36.947 110.501 37.1117C109.857 37.2763 109.004 37.1653 107.933 36.7747C107.576 36.6445 107.165 36.4645 106.7 36.2347L107.217 34.8162C107.585 34.9904 107.96 35.1451 108.337 35.283C108.937 35.5036 109.417 35.5805 109.788 35.5176C110.159 35.4548 110.56 35.2164 110.981 34.7986L111.428 34.3455L110.655 34.0618L109.164 24.3488L111.201 25.094L112.32 33.8136L118.122 27.639Z" fill="white"/>
    <path d="M120.917 30.6259L121.751 29.225L130.486 34.4248L129.659 35.8227L126.146 33.7317L122.576 39.7299L120.881 38.7229L124.451 32.7247L120.924 30.623L120.917 30.6259Z" fill="white"/>
    <path d="M138.481 41.1477L140.644 43.0665L134.94 49.5074L133.516 48.2448L138.364 42.7757L129.181 44.4033L127.031 42.4952L132.735 36.0543L134.146 37.3062L129.299 42.7753L138.481 41.1477Z" fill="white"/>
    <path d="M141.237 46.0948L142.526 45.107L148.722 53.1602L147.434 54.148L144.937 50.9104L139.411 55.1684L138.208 53.6073L143.733 49.3492L141.23 46.0978L141.237 46.0948Z" fill="white"/>
    <path d="M150.631 66.5295L150.425 66.635L146.217 58.5188C145.531 59.0187 145.15 59.6794 145.082 60.4811C145.014 61.2829 145.228 62.1739 145.726 63.1376C146.432 64.5073 147.279 65.2631 148.256 65.4178L149.059 67.1439C148.216 67.2239 147.401 66.9746 146.617 66.4028C145.833 65.831 145.134 64.9464 144.518 63.7655C143.688 62.165 143.364 60.7197 143.548 59.4531C143.729 58.1796 144.492 57.1993 145.821 56.5112C147.136 55.8291 148.365 55.7773 149.514 56.346C150.662 56.9147 151.636 57.9651 152.424 59.4864C154.09 62.7011 153.491 65.0577 150.62 66.5423L150.631 66.5295ZM151.22 60.1045C150.758 59.2064 150.189 58.5663 149.515 58.1745C148.842 57.7826 148.111 57.7084 147.318 57.9618L150.622 64.3463C151.282 63.9553 151.669 63.3818 151.774 62.6289C151.88 61.876 151.696 61.0368 151.21 60.1006L151.22 60.1045Z" fill="white"/>
    <path d="M154.931 80.4263C155.033 81.4147 154.97 82.1733 154.747 82.709C154.523 83.2447 154.093 83.5851 153.464 83.7105C152.798 83.8439 152.189 83.6762 151.631 83.1939C151.073 82.7116 150.645 81.7585 150.353 80.3316L149.131 74.3806L157.56 72.6475L158.737 78.342C159.006 79.6405 159.001 80.6263 158.736 81.3101C158.47 81.9939 158.02 82.4 157.384 82.5284C156.323 82.7433 155.509 82.0462 154.941 80.4301L154.931 80.4263ZM151.653 79.7456C151.957 81.2399 152.502 81.8987 153.287 81.7385C153.675 81.6599 153.923 81.423 154.042 81.0218C154.161 80.6207 154.136 79.9976 153.959 79.1554L153.214 75.5507L150.884 76.0292L151.653 79.7456ZM156.581 74.8593L154.41 75.3099L155.137 78.8333C155.421 80.2062 155.929 80.8161 156.652 80.6659C157.369 80.5187 157.577 79.7214 157.284 78.271L156.581 74.8593Z" fill="white"/>
    <path d="M151.282 85.622L159.883 85.5464L159.897 87.5159L156.496 87.547L156.552 93.8642L159.953 93.8331L159.967 95.8027L151.366 95.8783L151.352 93.9088L154.93 93.8742L154.874 87.5569L151.296 87.5915L151.282 85.622Z" fill="white"/>
    <path d="M158.172 107.017L157.617 109.851L149.176 108.19L149.547 106.323L156.718 107.735L150.666 100.636L151.221 97.8187L159.662 99.479L159.298 101.327L152.127 99.9148L158.179 107.014L158.172 107.017Z" fill="white"/>
    <path d="M150.208 117.728C149.205 119.6 148.153 120.307 147.058 119.862C146.368 119.583 145.954 118.981 145.808 118.061C145.665 117.147 145.934 115.852 146.618 114.198C147.875 111.143 149.439 109.873 151.306 110.392L150.629 112.156C149.613 111.985 148.709 112.847 147.932 114.736C147.139 116.664 147.153 117.788 147.964 118.121C148.725 118.434 149.526 117.559 150.38 115.491L150.967 114.066L152.095 114.53L151.553 115.854C150.776 117.742 150.748 118.844 151.48 119.145C151.826 119.288 152.187 119.165 152.583 118.782C152.969 118.396 153.318 117.831 153.627 117.079C154.316 115.399 154.264 114.283 153.463 113.727L154.257 112.01C155.078 112.46 155.532 113.191 155.62 114.185C155.709 115.179 155.488 116.324 154.951 117.621C154.367 119.036 153.736 120.04 153.052 120.62C152.368 121.201 151.704 121.357 151.054 121.094C150.034 120.673 149.753 119.551 150.218 117.731L150.208 117.728Z" fill="white"/>
    <path d="M141.535 130.614C141.441 129.964 141.606 129.348 142.036 128.764C142.459 128.182 142.996 127.845 143.634 127.74C144.272 127.635 144.887 127.799 145.462 128.226C146.034 128.645 146.368 129.176 146.462 129.826C146.563 130.473 146.396 131.082 145.966 131.667C145.542 132.248 144.998 132.589 144.351 132.69C143.703 132.791 143.091 132.633 142.522 132.22C141.95 131.801 141.622 131.268 141.528 130.617L141.535 130.614Z" fill="#E9562A"/>
    <path d="M133.185 134.769L138.661 141.402L130.859 147.839L125.382 141.207L126.906 139.954L131.346 145.336L136.11 141.407L131.671 136.025L133.194 134.773L133.185 134.769Z" fill="white"/>
    <path d="M122.53 152.911C121.194 153.618 119.929 153.832 118.737 153.558C117.546 153.285 116.625 152.528 115.969 151.292C115.312 150.055 115.212 148.863 115.656 147.728C116.1 146.593 116.994 145.67 118.324 144.965C120.018 144.07 121.514 143.976 122.816 144.674L120.518 140.317L122.257 139.395L127.809 149.906L126.214 150.749L125.325 149.069C125.3 150.665 124.369 151.954 122.533 152.918L122.53 152.911ZM119.524 146.031C118.539 146.555 117.878 147.206 117.553 147.997C117.228 148.788 117.278 149.58 117.695 150.375C118.112 151.17 118.743 151.653 119.576 151.83C120.408 152.007 121.327 151.838 122.312 151.314C123.311 150.785 123.969 150.126 124.29 149.345C124.608 148.557 124.559 147.766 124.142 146.97C123.725 146.175 123.1 145.689 122.267 145.512C121.435 145.336 120.523 145.502 119.524 146.031Z" fill="white"/>
    <path d="M111.894 149.198C113.107 149.674 113.909 150.588 114.301 151.946C114.693 153.305 114.496 154.504 113.722 155.554C112.949 156.604 111.733 157.365 110.072 157.848C108.41 158.33 106.97 158.327 105.756 157.851C104.543 157.376 103.741 156.462 103.349 155.103C102.957 153.744 103.154 152.545 103.928 151.495C104.701 150.446 105.917 149.684 107.578 149.202C109.24 148.72 110.68 148.723 111.894 149.198ZM112.06 154.85C112.551 154.142 112.672 153.35 112.422 152.49C112.173 151.631 111.652 151.027 110.862 150.685C110.072 150.344 109.116 150.334 108.002 150.653C106.895 150.969 106.097 151.493 105.609 152.208C105.115 152.925 104.991 153.711 105.237 154.563C105.484 155.416 106.002 156.013 106.802 156.359C107.602 156.704 108.55 156.717 109.657 156.401C110.772 156.082 111.573 155.565 112.063 154.857L112.06 154.85Z" fill="white"/>
    <path d="M90.0519 152.046L92.7018 151.82L97.2036 155.012L99.0708 154.855L98.7707 151.302L100.732 151.137L101.461 159.708L99.4998 159.873L99.2049 156.407L97.2907 156.568L93.5485 160.38L91.0769 160.587L95.784 156.073L90.0519 152.046Z" fill="white"/>
    <path d="M82.1131 160.031C80.6153 159.857 79.4485 159.321 78.6226 158.426C77.7938 157.524 77.463 156.382 77.6174 154.99C77.7787 153.596 78.3614 152.555 79.3725 151.866C80.3836 151.177 81.638 150.919 83.1359 151.093C85.0424 151.309 86.3265 152.08 87.0057 153.388L87.5658 148.495L89.5253 148.721L88.1753 160.532L86.3785 160.325L86.5941 158.435C85.6722 159.744 84.1785 160.276 82.116 160.038L82.1131 160.031ZM83.5199 152.659C82.4074 152.53 81.4985 152.703 80.7837 153.175C80.0689 153.646 79.6633 154.326 79.5602 155.216C79.4572 156.106 79.7025 156.861 80.2963 157.483C80.8871 158.097 81.732 158.472 82.8446 158.601C83.964 158.727 84.8826 158.557 85.5906 158.089C86.2986 157.62 86.7041 156.941 86.8072 156.051C86.9103 155.161 86.6649 154.405 86.081 153.787C85.497 153.17 84.6453 152.798 83.5229 152.665L83.5199 152.659Z" fill="white"/>
    <path d="M66.3233 156.003L64.287 155.354L71.4255 147.757C72.1843 146.916 72.8814 146.404 73.5207 146.209C74.1599 146.014 75.0146 146.091 76.0985 146.436C76.4663 146.553 76.8852 146.714 77.3582 146.924L76.9001 148.366C76.5244 148.211 76.1408 148.076 75.7602 147.948C75.156 147.754 74.6678 147.697 74.2957 147.776C73.9236 147.856 73.5354 148.105 73.1399 148.544L72.716 149.012L73.4978 149.259L75.411 158.896L73.3452 158.236L71.8457 149.575L66.3233 156.003Z" fill="white"/>
    <path d="M63.3678 153.133L62.5962 154.564L53.6456 149.75L54.4172 148.319L58.0195 150.258L61.3233 144.115L63.0596 145.047L59.7558 151.19L63.3678 153.133Z" fill="white"/>
    <path d="M45.4549 143.478L43.1956 141.674L48.5544 134.943L50.0426 136.129L45.489 141.845L54.5711 139.74L56.8176 141.534L51.4588 148.264L49.9834 147.089L54.5369 141.373L45.4549 143.478Z" fill="white"/>
    <path d="M42.4255 138.576L41.1803 139.626L34.6341 131.854L35.8792 130.804L38.516 133.933L43.8504 129.44L45.1201 130.948L39.7857 135.441L42.4284 138.583L42.4255 138.576Z" fill="white"/>
    <path d="M32.1423 118.566L32.3428 118.447L36.9013 126.379C37.566 125.848 37.9177 125.175 37.9495 124.365C37.9813 123.554 37.7326 122.678 37.1898 121.742C36.4252 120.406 35.5431 119.681 34.5628 119.577L33.6845 117.883C34.5269 117.763 35.3506 117.976 36.1597 118.513C36.9688 119.049 37.7034 119.902 38.3743 121.059C39.2699 122.623 39.6653 124.046 39.5271 125.325C39.389 126.604 38.6807 127.618 37.3857 128.365C36.1013 129.099 34.8749 129.214 33.6974 128.69C32.5228 128.174 31.5026 127.168 30.6494 125.683C28.8455 122.544 29.3389 120.168 32.1393 118.559L32.1423 118.566ZM31.8301 125.01C32.3296 125.883 32.9302 126.502 33.6153 126.864C34.3004 127.227 35.0403 127.264 35.8184 126.977L32.2382 120.744C31.5967 121.16 31.236 121.755 31.1638 122.509C31.0848 123.267 31.3157 124.102 31.8369 125.007L31.8301 125.01Z" fill="white"/>
    <path d="M27.2376 104.849C27.0915 103.872 27.1175 103.104 27.3216 102.561C27.5228 102.011 27.9333 101.662 28.5638 101.504C29.2247 101.34 29.8416 101.488 30.4211 101.945C31.0007 102.402 31.4631 103.34 31.8193 104.747L33.2995 110.635L24.9533 112.731L23.5395 107.09C23.22 105.805 23.1748 104.817 23.4138 104.128C23.6527 103.44 24.0845 103.009 24.7082 102.853C25.7559 102.587 26.6045 103.253 27.2415 104.839L27.2376 104.849ZM25.8273 110.483L27.9765 109.944L27.1044 106.46C26.7622 105.104 26.2302 104.512 25.5115 104.693C24.7997 104.871 24.6278 105.677 24.9859 107.107L25.8342 110.48L25.8273 110.483ZM30.5435 105.388C30.1744 103.913 29.5982 103.276 28.8256 103.464C28.4457 103.563 28.2015 103.807 28.1019 104.216C27.9992 104.618 28.058 105.243 28.2654 106.08L29.1632 109.643L31.472 109.06L30.5474 105.378L30.5435 105.388Z" fill="white"/>
    <path d="M30.6613 99.4912L22.0729 99.9353L21.9718 97.9709L25.3676 97.7957L25.0374 91.4833L21.6417 91.6584L21.5405 89.694L30.1289 89.25L30.2301 91.2144L26.6599 91.3999L26.99 97.7123L30.5671 97.5239L30.6682 99.4883L30.6613 99.4912Z" fill="white"/>
    <path d="M22.858 78.4095L23.2911 75.5557L31.7958 76.8552L31.5105 78.7345L24.2882 77.6368L30.6395 84.4686L30.2073 87.3058L21.7027 86.0063L21.987 84.1436L29.2093 85.2413L22.858 78.4095Z" fill="white"/>
    <path d="M30.3475 67.3918C31.2695 65.4811 32.2912 64.7225 33.3987 65.1218C34.1001 65.3714 34.5389 65.9541 34.7221 66.8668C34.9052 67.7795 34.6926 69.0746 34.0805 70.7619C32.9613 73.8717 31.4496 75.208 29.5619 74.7719L30.1531 72.9798C31.1755 73.107 32.038 72.2057 32.7336 70.2791C33.441 68.323 33.3836 67.1933 32.5576 66.9C31.7875 66.6231 31.0182 67.5328 30.2594 69.6331L29.7337 71.088L28.587 70.6731L29.0728 69.333C29.7684 67.4064 29.7425 66.3119 29.0018 66.0467C28.6546 65.9204 28.2924 66.0606 27.9193 66.4577C27.5492 66.8616 27.2227 67.4417 26.9497 68.202C26.3299 69.9089 26.4382 71.0247 27.2648 71.5454L26.549 73.2938C25.7099 72.876 25.2247 72.1671 25.0991 71.1807C24.9638 70.1904 25.1385 69.0336 25.6195 67.72C26.1412 66.275 26.7299 65.2482 27.3856 64.6397C28.0412 64.0311 28.7001 63.8438 29.3622 64.0779C30.4011 64.45 30.7269 65.5612 30.3436 67.4017L30.3475 67.3918Z" fill="white"/>
    <path d="M40.6904 52.5557C40.7955 53.2501 40.6182 53.9121 40.1625 54.5318C39.7068 55.1515 39.1347 55.5207 38.4531 55.6365C37.7685 55.7454 37.1193 55.5789 36.4927 55.1262C35.8857 54.6812 35.5263 54.113 35.4144 53.4215C35.3025 52.7301 35.4828 52.075 35.9385 51.4552C36.3942 50.8355 36.9663 50.4663 37.6646 50.3514C38.356 50.2395 39.0121 50.4031 39.619 50.8481C40.226 51.293 40.5854 51.8612 40.6904 52.5557Z" fill="#E9562A"/>
    <path d="M101.551 115.808L78.959 63.542" stroke="white" stroke-width="2.5" stroke-linejoin="bevel"/>
    <path d="M108.834 101.888L106.019 100.886L101.095 114.754L87.6193 108.839L86.4205 111.576L102.836 118.781L108.834 101.888Z" fill="white"/>
</svg>
